<svg preserveAspectRatio="none"
    aria-hidden="true" viewBox="0 0 345 25" fill="none" xmlns="http://www.w3.org/2000/svg">
<path d="M2.8744 17.8859C4.73228 17.5243 7.2611 17.2572 9.18563 17.1199C9.77377 17.0786 9.51048 17.3331 9.92474 17.3128C10.7607 17.269 11.4613 17.0566 12.2964 17.028C12.5664 17.0206 12.2917 17.4025 12.5671 17.3881C14.0864 17.3052 15.5477 16.9936 17.0674 16.8317C24.6902 16.0129 32.1603 14.9951 39.8553 14.0072C42.3923 13.6808 45.5234 13.5286 48.1103 13.0184C48.4141 12.9583 48.1893 12.693 48.244 12.6605C49.1044 12.1599 48.893 12.7919 49.4941 12.7848C51.8889 12.7538 54.5405 12.4021 56.7822 11.9706C57.7454 11.7848 56.6898 11.3424 57.7149 11.5298C57.7861 11.5422 57.5826 11.887 57.8544 11.8825C58.464 11.8724 59.5929 11.6576 60.0654 11.6167C60.4786 11.5817 60.7356 11.5576 60.9732 11.5308C61.2563 11.4991 61.5149 11.4633 61.9817 11.4026C63.1544 11.2529 64.5653 11.2338 65.8122 11.016C66.0789 10.9685 65.6853 10.6915 66.1085 10.587C66.5289 10.4826 67.6638 10.3813 68.0567 10.4143C68.4444 10.4475 68.3107 10.7161 68.3842 10.7661C68.9939 11.1893 70.2281 10.3772 70.393 10.3432C73.4318 9.73523 76.0978 9.85847 78.969 9.56915C81.1535 9.3487 83.4667 8.98778 85.541 8.79108C88.0057 8.55867 90.1258 8.50906 92.5118 8.21824C92.7637 8.18786 92.4268 7.84518 92.7349 7.80724C93.9412 7.65876 95.1276 7.5218 96.3358 7.39797C98.4084 7.18565 100.487 7.0241 102.578 6.95072C102.908 6.93954 102.525 7.31613 102.855 7.32487C104.893 7.36817 108.14 7.66801 109.178 6.106C110.542 6.01491 112.201 5.89768 113.456 6.0597C114.256 6.16493 113.532 6.60256 114.481 6.34988C114.696 6.29329 114.379 6.0081 114.705 5.94699C116.068 5.69074 117.575 5.64292 118.928 5.34667C119.204 5.28556 119.102 5.01103 119.174 4.95271C119.784 4.47815 120.953 5.05196 121.202 5.07832C123.046 5.27479 124.37 5.00676 126.071 4.86354C126.463 4.83084 125.966 4.49324 126.342 4.44817C128.324 4.21702 130.339 4.07776 132.293 4.08688C132.73 4.08969 132.357 4.44532 132.567 4.46319C133.473 4.54002 133.623 3.91395 134.506 3.97627C134.692 3.98864 134.61 4.27342 134.646 4.30111C135.217 4.73557 135.6 4.02593 135.736 4.00034C137.422 3.66395 138.544 4.28874 140.193 4.06724C140.386 4.04042 139.923 3.72229 140.467 3.66829C144.132 3.30381 148.025 3.14074 151.681 3.19823C152.245 3.207 151.861 3.49468 151.898 3.52496C152.505 3.99672 152.84 3.29491 153.023 3.25822C154.492 2.98527 155.845 3.47907 156.807 2.61302C161.268 2.56457 165.687 2.16225 170.115 2.1193C171.802 2.10383 173.548 2.13971 175.243 2.27281C175.321 2.27803 175.196 2.6186 175.352 2.62756C177.23 2.73948 176.858 2.23353 178.06 1.5486C178.363 1.37657 179.34 2.10857 179.427 2.16174C179.741 2.35764 179.442 2.86801 179.546 2.90429C180.404 3.18785 180.218 1.54466 181.348 1.50208C181.383 1.50351 181.246 1.81233 181.342 1.83896C181.641 1.92266 181.931 1.79132 182.226 1.8851C182.901 2.10243 183.166 2.89445 184.173 2.39206C184.3 2.32707 184.074 1.39895 185.088 1.40767C185.491 1.41178 187.29 1.33423 187.801 1.37804C188.31 1.42164 187.972 1.73448 188.009 1.74632C189.372 2.09989 188.865 2.28202 189.562 2.8496C190.259 3.41511 190.026 2.01992 190.298 1.85458C190.57 1.68963 191.579 1.98659 191.829 2.09319C192.076 2.19983 191.779 2.40079 191.997 2.4587C193.443 2.83667 192.604 1.74352 193.07 1.50645C194.169 0.945475 195.081 1.95835 196.105 2.03011C196.382 2.04951 196.149 1.81941 196.395 1.79006C197.366 1.67706 197.963 1.98444 199.07 1.65566C199.253 1.602 200.131 0.952072 200.725 1.3948C200.809 1.45867 200.582 1.72407 200.999 1.77072C201.623 1.84078 202.747 1.86729 203.416 1.7631C203.907 1.6861 203.331 1.2741 203.954 1.39046C204.231 1.44248 203.727 1.70547 204.247 1.78238C204.764 1.85929 206.083 1.81464 206.587 1.79349C207.089 1.77211 206.806 1.45523 206.846 1.43241C207.089 1.30125 208.046 1.12143 208.131 1.11978C212.422 0.975361 216.383 1.43388 220.556 1.16905C220.884 1.14876 220.659 0.811694 220.709 0.805078C221.828 0.639618 220.961 1.56506 221.751 1.8534C221.624 1.16275 222.089 1.279 222.877 1.18771C223.257 1.14317 223.045 0.878878 223.079 0.85074C223.636 0.432333 224.04 0.951247 224.143 1.057C224.524 1.446 224.923 0.970368 225.182 1.23039C225.441 1.48844 224.863 1.88885 225.621 1.86982C225.829 1.61786 225.254 0.980044 225.827 0.864376C227.99 0.426385 232.053 0.866013 233.8 0.891626C235.538 0.916855 236.106 0.862646 237.121 0.937053C238.957 1.07203 238.275 0.601079 239.412 0.364531C240.554 0.128196 240.013 1.31948 240.182 1.57155C240.347 1.82356 240.519 1.55935 240.721 1.69636C240.923 1.83335 240.493 2.0123 240.964 2.05828C241.435 2.10415 242.711 1.63457 242.873 1.36644C243.217 0.798297 242.63 0.214335 243.88 0.405946C243.952 0.417354 243.723 0.731523 243.998 0.759432C246.175 0.970972 248.445 0.958855 250.609 1.1472C250.908 1.17357 250.644 1.52265 250.819 1.54191C252.64 1.74387 251.983 1.16718 252.97 0.508519C252.756 1.37373 253.309 1.89582 254.68 1.88761C255.51 1.883 255.364 1.50753 255.897 1.23689C256.057 1.15531 256.644 1.40874 256.748 1.23057C257.091 0.648106 256.538 0.00426197 257.95 0.250177C258.012 0.261916 257.818 0.580755 258.032 0.598118C259.426 0.711964 259.592 0.10451 261.088 0.0194968C262.254 -0.0471839 264.369 0.307603 265.697 0.359691C265.676 1.32999 266.948 1.10017 267.456 0.428481C268.324 0.451026 269.255 0.408456 270.105 0.496973C270.396 0.527152 270.206 0.808931 270.243 0.839112C270.806 1.31265 271.18 0.660273 271.367 0.633971C273.393 0.377535 275.046 0.86559 277.001 0.37941C277.07 0.361915 277.182 -0.312289 277.701 0.178845C277.735 0.212711 277.095 0.520456 278.007 0.542578C278.9 0.56474 280.658 0.924199 281.905 0.61208C282.2 0.536879 282.996 -0.0100324 283.619 0.417956C283.702 0.476068 283.611 0.669277 283.731 0.776935C284.118 1.12 284.33 0.43904 284.78 1.01834C285.217 1.59761 286.193 2.03239 287.462 1.63662C287.503 1.62512 287.805 1.08604 288.2 1.09582C288.257 1.09726 288.315 1.09948 288.375 1.10235C289.014 1.13167 289.828 1.22782 290.432 1.22736C290.75 1.22692 290.548 0.890749 290.603 0.884867C292.762 0.707266 294.314 1.01584 296.597 1.16566C297.031 1.19387 298.264 0.748623 299.061 1.11918C299.962 1.52545 299.03 3.15938 301.091 2.79351C301.918 2.64773 303.013 0.57459 304.499 1.68203C307.413 1.46446 310.089 2.07822 313.015 1.7853C313.148 1.77239 313.58 1.20291 313.883 1.22081C314.334 1.24849 314.59 1.52981 314.914 1.55906C316.263 1.68836 317.541 1.50555 318.861 1.60083C319.357 1.63646 319.166 1.90949 319.77 1.95357C320.373 1.99785 320.77 1.64581 321.584 1.86785C322.186 2.03646 322.756 2.82694 323.557 2.96298C323.629 2.21845 324.19 2.26606 325.188 2.13301C325.38 2.10708 325.194 1.8342 325.286 1.80855C325.654 1.69819 325.99 1.937 326.346 1.81522C326.432 1.78609 326.454 1.53164 326.526 1.49347C327.133 1.15828 328.076 1.80469 328.228 1.91693C328.837 2.34458 329.164 2.03773 329.637 2.22638C330.113 2.41568 329.365 2.54149 329.931 2.67936C331.093 2.96393 332.613 3.0609 333.805 3.19094C334.283 3.24139 333.99 2.8699 334.06 2.86924C335.056 2.88126 336.015 3.34782 336.636 2.73235C337.129 4.55251 337.249 2.62649 338.622 3.13651C338.73 3.17757 338.776 4.01836 338.337 4.09069C337.897 4.16301 337.282 3.83265 336.67 3.95716C336.525 3.98588 335.643 4.67369 335.53 4.7094C334.638 4.98609 334.644 3.74082 334.606 3.66816C334.166 2.88374 333.102 3.62201 332.84 3.65568C331.634 3.80769 330.654 3.54658 329.645 3.65327C328.994 3.7227 328.867 4.528 328.361 4.46348C326.697 4.25372 326.172 3.08136 324.528 3.96076C324.177 4.14915 324.447 5.0542 323.284 4.28511C323.215 4.23665 322.332 3.54582 321.796 3.92211C321.728 3.96947 321.716 4.22805 321.628 4.24514C321.039 4.35467 320.661 4.12891 320.027 4.19698C319.382 4.26458 318.629 4.37754 317.903 4.25887C317.456 4.18728 316.937 3.68375 316.728 3.55743C316.149 3.19414 315.493 3.72809 315.147 3.3037C314.793 2.87702 315.54 2.27402 314.576 1.97289C314.517 2.64375 314.41 3.33077 314.329 4.00472C312.217 3.90966 310.142 3.63601 308.001 3.61821C307.742 3.61685 307.999 3.98413 307.72 3.99202C306.532 4.02374 305.496 3.74605 304.249 3.82747C303.283 3.89193 302.238 4.25896 301.227 4.34184C300.647 3.56421 299.114 3.80664 298.06 3.72576C297.682 3.6976 297.709 3.49236 297.439 3.42265C296.413 3.16489 296.888 3.84952 296.604 3.95391C295.423 4.40034 295.335 2.86021 293.904 2.88808C293.833 2.889 292.925 3.70359 292.798 3.75399C291.997 4.08241 292.668 3.4676 292.166 3.4041C291.233 3.28815 290.625 3.08922 289.548 3.32521C289.318 3.37653 288.848 3.6641 288.367 3.65647C288.199 3.65373 288.03 3.61217 287.871 3.50644C287.793 3.45441 287.837 3.18335 287.773 3.16728C286.62 2.89933 286.582 3.75156 285.911 4.03875C285.225 4.32588 284.232 3.73645 284.016 3.56674C283.471 3.12764 284.435 3.37972 284.464 3.33677C284.809 2.82502 284.067 2.91221 283.491 2.86853C283.41 2.03292 282.601 2.08266 282.893 2.82667C282.927 2.90792 283.376 2.83026 283.491 2.86853C282.985 3.68789 282.096 3.79246 281.136 3.02674C280.681 2.66794 281.116 2.24887 279.725 2.40313C279.092 2.4729 279.329 3.04794 278.784 3.20547C277.542 3.5649 275.859 3.03193 274.578 3.12043C274.106 3.15257 274.567 3.46607 274.244 3.4989C273.391 3.58705 272.608 3.35359 271.763 3.47805C271.686 3.48973 271.877 3.8186 271.61 3.82389C269.579 3.87062 267.819 3.6685 265.682 3.67576C264.662 3.67925 262.834 3.8735 261.763 3.84506C259.938 3.79712 257.653 3.3371 256.089 3.46811C255.062 3.55221 255.29 3.87987 254.851 4.10872C254.005 4.55223 252.505 3.78748 252.299 3.66889C252.293 3.66493 253.174 3.57816 252.702 3.41374C252.425 3.06391 252.309 3.66726 252.299 3.66889C252.168 3.59212 250.393 3.53623 250.05 3.60319C249.861 3.63973 249.97 3.95092 249.872 3.96407C247.519 4.26983 245.163 4.37792 242.764 4.26363C242.722 4.25788 242.781 3.90765 242.682 3.89848C241.3 3.7615 240.419 4.20126 239.277 4.47134C238.142 4.74128 237.238 4.6698 236.552 4.08023C235.69 4.16874 234.452 3.92283 233.739 3.77332C233.026 3.6238 232.937 4.30557 232.875 4.32001C230.928 4.78224 229.799 4.412 227.772 4.38735C226.808 4.3744 224.903 4.50813 223.862 4.60251C223.04 4.67815 222.541 4.5284 221.785 4.64526C221.682 4.66089 221.792 4.96164 221.761 4.97391C220.922 5.35295 221.314 4.60469 221.136 4.47596C220.493 4.00788 220.096 3.75964 219.017 4.00814C218.767 4.06508 218.061 5.14604 217.607 5.21802C217.016 5.30966 217.231 4.92288 216.613 5.02869C216.56 5.0374 216.576 5.27283 216.193 5.2707C214.415 5.26396 212.475 5.17047 210.628 5.23772C210.375 5.246 210.708 5.61215 210.343 5.63029C208.634 5.7151 206.76 5.74751 205.089 5.61542C204.679 5.58172 204.929 5.3134 204.838 5.23798C204.279 4.78185 203.526 5.48525 203.397 5.5017C200.35 5.91088 198.002 5.35794 194.903 5.74517C194.733 5.76748 193.452 6.53925 192.855 5.92926C192.813 5.88873 192.225 5.26382 191.727 5.71926C191.696 5.74775 192.066 6.06716 191.437 6.05328C190.808 6.03949 189.809 6.29272 188.942 5.95748C188.668 5.85188 188.005 5.23214 187.206 5.77061C187.154 5.80801 185.94 7.00588 185.468 6.22448C185.392 6.09584 185.437 5.24968 184.49 5.71594C184.307 5.80636 184.652 5.9825 184.165 6.11735C183.42 6.32503 182.421 6.13496 181.523 6.54445C181.367 6.61682 180.711 7.21438 180.143 6.80092C180.054 6.73614 180.207 6.44841 179.916 6.42792C178.531 6.32926 177.12 6.57337 175.708 6.436C175.212 6.38776 175.445 5.92234 174.927 5.82157C174.41 5.72076 173.375 5.64687 172.838 5.87835C172.306 6.10966 172.927 6.80937 172.122 6.9024C171.523 6.97177 170.928 7.02143 170.337 7.05665C167.418 7.22974 164.57 7.06619 161.647 7.16722C161.131 7.18497 161.571 7.42188 160.814 7.46679C157.989 7.6333 153.15 8.15789 150.678 7.76211C148.69 7.44439 151.133 6.95299 149.627 6.868C148.904 6.82787 148.18 7.72062 148.003 7.7588C146.317 8.13953 145.108 7.84679 143.592 8.0674C143.281 8.11304 143.611 8.43277 143.346 8.46785C142.43 8.59151 141.445 8.50908 140.583 8.60016C140.191 8.64221 140.279 8.89766 139.914 8.90441C139.034 8.92409 138.283 8.87047 137.408 8.69194C137.329 8.67564 137.827 8.3115 137.18 8.34899C136.138 8.41032 134.834 8.27053 133.66 8.61581C133.311 8.7194 133.359 9.3143 132.555 8.96656C132.388 8.89397 132.531 8.16251 131.694 8.85352C131.553 8.96826 130.14 9.92534 129.36 9.45223C129.155 9.32756 128.616 8.78521 128.202 8.9139C128.145 8.93366 128.407 9.23271 128.053 9.29505C126.81 9.50884 125.51 9.59115 124.247 9.80831C123.912 9.86674 124.444 10.1509 123.945 10.2274C122.545 10.4409 120.8 10.5221 119.432 10.5518C118.921 10.5628 119.244 10.2548 119.204 10.2287C118.564 9.80255 118.283 10.4905 118.093 10.5479C116.897 10.8972 115.957 10.6824 114.832 10.8802C114.525 10.9337 114.776 11.2226 114.718 11.2567C114.11 11.5938 114.525 10.9854 114.118 10.9654C112.966 10.9084 111.71 11.0663 110.569 11.2291C110.153 11.289 110.661 11.5997 110.288 11.6492C108.062 11.9517 105.739 12.1745 103.536 12.2212C103.125 12.229 103.35 11.9222 103.258 11.8683C102.613 11.4914 101.818 12.1947 101.63 12.2746C100.744 12.6418 100.38 12.4344 99.5778 12.5721C98.7458 12.7164 97.8613 12.8485 96.9675 12.9675C93.6527 13.4088 90.0293 13.6796 87.1182 13.9018C82.2785 14.2741 78.5119 14.3725 73.9416 14.9075C73.6516 14.9412 73.982 15.2814 73.733 15.3151C70.5098 15.736 67.3197 15.9285 64.1417 16.4388C63.8799 16.4803 64.3025 16.7819 63.8852 16.8604C63.2468 16.9827 62.4686 17.0851 61.7536 17.1337C61.5093 17.1508 61.2714 17.1616 61.047 17.1646C60.6074 17.1712 61.1451 16.7906 60.7035 16.8034C59.6746 16.8327 58.6011 16.9581 57.5637 17.1618C57.1254 17.2488 57.8421 17.5118 57.2689 17.597C53.3683 18.1849 49.5432 18.7993 45.5308 18.9156C45.2564 18.9234 44.914 18.2328 44.3636 18.4558C44.3494 18.6635 44.3866 18.8999 44.3992 19.1178C38.7169 20.0721 33.0813 20.6639 27.3676 21.4972C27.1302 21.5319 27.5991 21.8532 27.1392 21.9224C24.4438 22.3286 21.843 22.8375 19.0322 22.8799C18.7583 22.8839 18.7928 22.1873 17.9944 22.4148C17.8469 22.4566 16.6752 22.7293 16.366 22.927C16.3265 22.9557 16.5981 23.2365 16.2053 23.3064C13.9412 23.7038 11.5421 23.9991 9.24089 24.1492C8.87484 24.172 9.2083 23.7783 8.94816 23.7914C7.07482 23.8909 5.0695 24.4504 3.23774 24.3872C1.98339 24.3444 2.39619 23.6974 1.65533 23.2075C1.56939 23.1372 0.788246 23.212 0.735487 22.8774C0.561546 22.0454 0.794683 21.0906 0.566052 20.2084C0.549011 20.1127 0.299388 20.1422 0.14376 20.1242C-0.00335991 20.1054 -0.0813047 20.0463 0.12762 19.7942C0.15534 19.7628 0.791652 19.541 0.954155 19.36C1.0511 19.2379 0.812432 18.9218 1.02159 18.7552C1.2352 18.588 1.54798 18.838 1.91889 18.6227C2.31697 18.401 2.06427 18.0434 2.8744 17.8859ZM230.525 3.10689C229.862 2.79147 229.785 3.98934 230.491 3.69103C230.526 3.6752 230.559 3.12233 230.525 3.10689ZM310.163 2.73743C309.333 2.18834 308.718 2.95038 309.316 3.37225C309.908 3.79383 310.417 2.90402 310.163 2.73743ZM319.082 2.6622C318.105 2.20196 317.874 3.89017 318.954 3.59486C319.017 3.57828 319.139 2.68897 319.082 2.6622ZM4.58538 22.6477C4.57047 22.6339 4.03608 22.6939 4.02928 22.7106C3.79916 23.1269 4.86609 23.0071 4.58538 22.6477ZM327.934 2.77014C327.641 2.51748 326.713 2.71612 327.085 3.02907C327.385 3.2805 328.299 3.08403 327.934 2.77014ZM196.15 2.61303C196.139 2.59551 195.758 2.59067 195.769 2.69119C195.804 3.01484 196.33 2.90771 196.15 2.61303ZM342.89 4.29109C340.696 3.95469 339.514 2.40433 341.907 2.85262C342.339 2.93415 340.914 3.18176 341.454 3.37485C342.438 3.72658 343.218 2.93704 344.201 3.53607C344.377 3.64509 343.011 4.31265 342.886 4.29255C342.888 4.29206 342.889 4.29158 342.89 4.29109ZM230.122 1.67653C230.108 1.66093 229.58 1.65499 229.567 1.6709C229.288 2.05558 230.352 2.06774 230.122 1.67653ZM173.85 2.65818C173.827 2.62526 172.583 2.64661 172.547 2.67942C171.93 3.32733 174.426 3.28668 173.85 2.65818ZM265.719 0.385438C266.299 -0.00024879 266.991 -0.0492595 267.453 0.428007C266.88 0.405726 266.301 0.405369 265.719 0.385438Z" fill="#B8FF57"/>
</svg>
